<?xml version="1.0" encoding="UTF-8"?>
<!DOCTYPE svg PUBLIC "-//W3C//DTD SVG 1.1//EN" "http://www.w3.org/Graphics/SVG/1.1/DTD/svg11.dtd">
<!-- Creator: CorelDRAW -->
<svg xmlns="http://www.w3.org/2000/svg" xml:space="preserve" width="50" height="50" version="1.1" style="shape-rendering:geometricPrecision; text-rendering:geometricPrecision; image-rendering:optimizeQuality; fill-rule:evenodd; clip-rule:evenodd"
viewBox="0 0 2263.48 2572.65"
 xmlns:xlink="http://www.w3.org/1999/xlink"
 xmlns:xodm="http://www.corel.com/coreldraw/odm/2003">
 <defs>
  <style type="text/css">
   <![CDATA[
    .fil1 {fill:#FEFEFE;fill-rule:nonzero}
    .fil0 {fill:#29ABE2;fill-rule:nonzero}
   ]]>
  </style>
 </defs>
 <g id="Layer_x0020_1">
  <metadata id="CorelCorpID_0Corel-Layer"/>
  <g id="_1096527984">
   <path class="fil0" d="M583.5 1326.99c8.62,151.11 65.06,289.65 154.42,400.63 0,0 0.04,0 0.04,-0.03 41.37,-20.71 86.45,-38.79 134.56,-54.08 -35.7,-105.15 -56.33,-223.28 -60.07,-346.53l-228.96 0z"/>
   <path class="fil0" d="M741.26 840.98c-91.29,111.66 -149.06,251.75 -157.77,404.76l228.96 0c3.79,-125.04 24.98,-244.82 61.64,-351.12 -47.22,-15.12 -91.57,-32.96 -132.22,-53.34 -0.21,-0.09 -0.4,-0.21 -0.61,-0.3z"/>
   <path class="fil0" d="M1670.55 818.86c37.11,-11.69 72.28,-25.16 104.99,-40.33 -63.45,-61.07 -138.34,-110.39 -221.05,-144.4 27.07,30.24 52.21,65.21 75.21,104.64 14.78,25.34 28.4,52.09 40.85,80.09z"/>
   <path class="fil0" d="M903.83 818.86c12.45,-28 26.1,-54.75 40.85,-80.09 23,-39.43 48.14,-74.4 75.26,-104.64 -82.71,33.99 -157.61,83.33 -221.1,144.4 32.76,15.17 67.89,28.64 105,40.33z"/>
   <path class="fil0" d="M1776.95 1792.81c-32.79,-15.51 -68.04,-29.31 -105.34,-41.24 -12.74,28.84 -26.72,56.38 -41.91,82.43 -23,39.38 -48.1,74.34 -75.17,104.59 83.31,-34.26 158.69,-84.05 222.42,-145.78z"/>
   <path class="fil0" d="M944.68 1834c-15.54,-26.71 -29.86,-54.96 -42.82,-84.6 -37.83,11.83 -73.65,25.51 -106.96,40.95 64.29,62.86 140.57,113.54 225.05,148.26 -27.12,-30.25 -52.25,-65.21 -75.26,-104.61z"/>
   <path class="fil0" d="M1246.56 1987.43l0 -291.81c-93.07,2.3 -182.79,13.34 -265.3,32.34 10.35,22.68 21.6,44.42 33.64,65.1 64.46,110.57 145.56,178.17 231.65,194.37z"/>
   <path class="fil0" d="M1559.48 1793.05c11.76,-20.19 22.76,-41.37 32.92,-63.48 -82.11,-19.45 -171.59,-30.96 -264.58,-33.76l0 291.62c86.14,-16.23 167.2,-83.81 231.66,-194.37z"/>
   <path class="fil0" d="M1559.48 779.68c-64.46,-110.55 -145.52,-178.15 -231.66,-194.38l0 287.84c92.42,-2.53 181.46,-13.67 263.32,-32.68 -9.79,-21.13 -20.35,-41.42 -31.66,-60.79z"/>
   <path class="fil0" d="M1246.56 585.3c-86.1,16.24 -167.2,83.83 -231.65,194.38 -11.28,19.37 -21.88,39.66 -31.67,60.79 81.87,19 170.9,30.15 263.32,32.68l0 -287.84z"/>
   <path class="fil0" d="M1246.56 954.42c-103.18,-2.68 -202.81,-15.62 -294.14,-37.85 -34.74,98.9 -54.88,211.26 -58.67,329.17l352.81 0 0 -291.32z"/>
   <path class="fil0" d="M1246.56 1326.99l-352.81 0c3.71,116.15 23.37,226.93 57.09,324.72 91.9,-22.13 192.01,-34.91 295.72,-37.37l0 -287.35z"/>
   <path class="fil1" d="M625.52 788.64c-4.63,-2.56 -9.31,-5.17 -13.94,-7.82 -19.95,-11.31 -39.56,-23.19 -58.78,-35.61 -3.64,-2.34 -7.3,-4.68 -10.97,-7.12 -14.74,-9.72 -29.28,-19.72 -43.55,-30.03 -4.07,-2.93 -8.06,-5.85 -12.13,-8.86 -5.03,-3.74 -10.03,-7.47 -14.94,-11.26 -3.83,-2.88 -7.62,-5.81 -11.32,-8.79 -4.39,-3.41 -8.7,-6.84 -12.98,-10.3 -4.31,-3.47 -8.62,-6.94 -12.85,-10.45 -4.23,-3.52 -8.46,-7.07 -12.69,-10.68 -4.19,-3.55 -8.38,-7.15 -12.49,-10.79l-0.08 0c-6.32,-5.59 -12.56,-11.17 -18.73,-16.84 -3.14,-2.79 -6.21,-5.63 -9.27,-8.5 -3.06,-2.84 -6.03,-5.68 -9.06,-8.56 -12.13,-11.48 -23.93,-23.19 -35.3,-35.08 -2.33,-2.42 -4.63,-4.82 -7.01,-7.24 -0.69,-0.72 -1.37,-1.48 -2.05,-2.21 -2.66,-2.83 -5.28,-5.63 -7.86,-8.47 -2.83,-3.01 -5.6,-6.03 -8.34,-9.09 -3.3,-3.55 -6.49,-7.19 -9.67,-10.8 -2.21,-2.47 -4.39,-4.99 -6.52,-7.52 -8.02,-9.23 -15.88,-18.55 -23.49,-27.96 -69.46,88.83 -126.67,186.11 -170.9,290.69 -61.93,146.41 -95.73,301.09 -100.6,460.37l459.69 0c8.34,-171.03 68.81,-328.6 165.83,-457.08z"/>
   <path class="fil1" d="M408.89 1931.98c65.84,-57.62 137.83,-107.95 214.58,-150.58 -95.85,-128.03 -155.52,-284.61 -163.77,-454.43l-459.69 0c4.88,159.28 38.68,314.01 100.6,460.37 43.91,103.86 100.64,200.51 169.41,288.75 41.1,-50.93 87.46,-99.14 138.87,-144.12z"/>
   <path class="fil1" d="M676.6 1845.41c-140.33,75.45 -260.9,176.17 -353.21,294.82 17,19.13 34.65,37.87 52.9,56.11 118.08,118.13 255.7,210.83 408.92,275.7 146.73,62 301.72,95.84 461.34,100.6l0 -459.69c-225.09,-10.67 -426.94,-111.68 -569.96,-267.54z"/>
   <path class="fil1" d="M1804.11 1802.24l0 129.69c-135.73,109.31 -301,172.31 -476.29,180.94l0 459.73c158.94,-5 313.32,-38.75 459.41,-100.55 153.25,-64.87 290.84,-157.58 408.96,-275.7l52.66 -52.65c-111.55,-144.6 -264.86,-262.81 -444.74,-341.46z"/>
   <path class="fil1" d="M1327.82 1056.67l0 459.38 476.29 0 0 197.59c130.85,52.98 251.48,126.41 356.59,218.33 36.86,32.28 71.15,66.23 102.78,101.65l0 -976.95 -935.65 0z"/>
   <path class="fil1" d="M373.31 376.4l1.49 1.49c-17.16,17.2 -33.76,34.79 -49.8,52.84 0.16,0.32 0.44,0.6 0.73,0.91 2.66,3.42 5.31,6.8 8.05,10.13 2.9,3.69 5.88,7.34 8.9,10.95 2.7,3.28 5.4,6.52 8.17,9.76 0.53,0.63 1.01,1.26 1.62,1.84 2.29,2.75 4.63,5.46 7.01,8.15 18.21,21.03 37.47,41.38 57.53,61.05 2.86,2.83 5.76,5.63 8.7,8.38 1.73,1.74 3.51,3.41 5.28,5.04 3.1,2.97 6.24,5.89 9.39,8.78 8.57,8.01 17.36,15.84 26.26,23.51 2.58,2.25 5.19,4.49 7.82,6.7 6.65,5.67 13.38,11.26 20.15,16.75 41.46,33.63 85.77,64.65 132.59,92.74 4.15,2.48 8.3,4.96 12.49,7.43 0.2,0.14 0.44,0.27 0.65,0.36 4.14,2.44 8.29,4.82 12.49,7.16 4.27,2.43 8.58,4.86 12.93,7.25 0.03,0.05 0.08,0.09 0.16,0.09 4.07,2.25 8.14,4.46 12.24,6.67 0.28,0.13 0.48,0.26 0.77,0.4 142.94,-154.37 343.78,-254.4 567.62,-264.98l0 -459.77c-160.67,4.42 -316.67,38.26 -464.24,100.71 -153.29,64.83 -290.88,157.57 -409.01,275.69z"/>
   <path class="fil1" d="M1890.57 724.76c0.28,-0.14 0.48,-0.27 0.77,-0.4 4.11,-2.2 8.22,-4.42 12.25,-6.67 0.08,-0.04 0.16,-0.04 0.19,-0.09 4.32,-2.38 8.63,-4.82 12.9,-7.25 4.19,-2.34 8.34,-4.72 12.49,-7.16 0.2,-0.14 0.44,-0.27 0.68,-0.36 4.15,-2.48 8.3,-4.95 12.45,-7.43 46.82,-28.09 91.14,-59.11 132.59,-92.74 6.81,-5.49 13.5,-11.08 20.19,-16.75 2.58,-2.2 5.2,-4.45 7.77,-6.7 8.9,-7.66 17.69,-15.54 26.27,-23.51 3.18,-2.88 6.28,-5.81 9.39,-8.78 1.77,-1.63 3.54,-3.33 5.31,-5.04 2.9,-2.75 5.81,-5.54 8.66,-8.38 20.11,-19.67 39.29,-40.02 57.54,-61.05 2.42,-2.69 4.76,-5.4 7.05,-8.15 0.53,-0.58 1.09,-1.21 1.58,-1.84 2.77,-3.24 5.48,-6.48 8.18,-9.76 3.01,-3.61 6,-7.25 8.9,-10.95 2.78,-3.33 5.44,-6.71 8.06,-10.13 0.28,-0.31 0.52,-0.59 0.72,-0.91 -16,-18.05 -32.63,-35.64 -49.8,-52.84l1.49 -1.49c-118.13,-118.13 -255.71,-210.86 -408.96,-275.69 -146.08,-61.82 -300.47,-95.57 -459.41,-100.57l0 459.87c221.9,11.84 420.89,111.51 562.74,264.75z"/>
  </g>
 </g>
</svg>
